Coordinates
version=1
nRows=19
nColumns=33
inDegrees=yes

Units are S.I. units (second, meters, Newtons, ...)
Angles are in degrees.

endheader
time	ground_thorax_rot_x	ground_thorax_rot_y	ground_thorax_rot_z	ground_thorax_tx	ground_thorax_ty	ground_thorax_tz	clav_prot_r	clav_elev_r	scapula_abduction_r	scapula_elevation_r	scapula_upward_rot_r	scapula_winging_r	shoulder_elv_r	plane_of_elev_r	axial_rot_r	elbow_flexion_r	pro_sup_r	wrist_flex_r	wrist_dev_r	clav_prot_l	clav_elev_l	scapula_abduction_l	scapula_elevation_l	scapula_upward_rot_l	scapula_winging_l	shoulder_elv_l	plane_of_elev_l	axial_rot_l	elbow_flexion_l	pro_sup_l	wrist_flex_l	wrist_dev_l
      4.57000000	      0.43772723	      3.54388620	     12.02455437	     -0.11078066	      1.02624767	      0.02661464	      5.01052655	      6.31231007	     24.20855022	      1.62066897	     27.04901580	    -12.19031704	     26.82774396	    -59.73228520	     54.27392477	     61.76904041	    -26.44636826	     21.17777544	    -24.99999983	     19.75851051	    -11.09362124	    -28.99007353	     -9.96449979	    -33.03905908	      6.87221404	     63.94395560	    -16.27686199	     -0.78338851	     47.58442303	      7.83190401	     28.57621673	     -7.10213933
      4.58000000	      0.27054009	      3.25630303	     11.98919838	     -0.11036046	      1.02576921	      0.02580236	      5.41773300	      5.76454695	     25.33644030	      1.06830685	     27.38897101	    -12.46104411	     26.21151818	    -58.04595272	     55.89810953	     58.99628158	    -32.29406092	     23.33952741	    -24.99999983	     20.10683272	    -11.46957635	    -29.47108757	     -9.32771326	    -32.42062105	      7.13182097	     63.59918400	    -15.56983777	     -0.62133940	     45.27676274	      7.83062861	     28.87842744	     -7.07627818
      4.59000000	      0.20849418	      3.20977203	     11.88859526	     -0.10991564	      1.02547437	      0.02529663	      5.86720257	      5.06230920	     26.30545617	      0.47570090	     27.42637962	    -12.63944173	     26.16485766	    -56.89953356	     56.31898302	     56.75706769	    -32.61116252	     22.92465843	    -24.99999983	     20.44186975	    -12.14114993	    -29.91009604	     -8.50252981	    -31.94911708	      7.29134178	     63.68519704	    -14.79992389	     -1.05270145	     42.86694724	      8.16647710	     28.85712743	     -6.62776013
      4.60000000	      0.60345314	      2.79665412	     11.92155614	     -0.10908755	      1.02437368	      0.02453007	      5.83037592	      5.83499957	     27.38734879	      0.68932132	     28.98483977	    -13.17897540	     24.46835485	    -54.55666380	     59.89033136	     52.70094272	    -38.53688768	     24.49380538	    -24.99999983	     20.62694635	    -12.19744346	    -30.16596874	     -8.17833059	    -31.38014088	      7.46898946	     62.26339942	    -13.08726492	      0.06285433	     39.69381352	      8.38737568	     28.85964318	     -6.66014436
      4.61000000	      0.67153266	      2.35753171	     11.78802876	     -0.10868922	      1.02415500	      0.02341296	      5.97348755	      6.05840467	     28.91362919	      0.46544813	     30.55094957	    -13.73403144	     21.73918323	    -51.91237325	     64.66289490	     46.66605747	    -45.90440763	     29.78207979	    -24.99999983	     20.88798632	    -12.45788365	    -30.53725448	     -7.73692314	    -30.94549489	      7.65651452	     61.56975057	    -11.77879917	      0.98847786	     36.89507282	      9.02729411	     28.77674131	     -6.66400241
      4.62000000	     -2.07938660	      1.28829117	     11.30383006	     -0.10830600	      1.02380975	      0.01083347	     12.59620704	    -12.65816563	     30.04279398	    -10.69047637	     14.82573075	     -7.48187161	    -13.00387136	    -64.74896287	    121.25016448	    -62.49611928	   -158.59590537	      0.59875978	     12.39990816	     20.50559235	     -8.77338991	    -30.14029479	     -9.59709595	    -28.00282294	      8.36661720	     59.02322921	     -9.87699178	      0.86772805	     35.04776419	     10.66295155	     28.75471496	     -5.90992748
      4.63000000	     -2.26318297	      1.34595979	     11.12473348	     -0.10722858	      1.02357283	      0.01047517	     12.28741793	    -12.85979859	     30.06677084	    -11.14294956	     15.65870530	     -7.30519319	    -10.91399661	    -63.70560654	    123.15028551	    -59.83359732	   -157.88265715	      0.01765981	     12.55824033	     21.06745496	     -8.77169263	    -31.08541780	     -9.46369631	    -27.78735102	      8.92385656	     58.47567285	     -8.13830735	      1.62884921	     32.18366970	     10.93170433	     28.35213580	     -5.35158169
      4.64000000	     -2.32764575	      1.55610345	     11.22563193	     -0.10723383	      1.02323234	      0.01028408	     12.47594484	    -13.04857882	     30.18271464	    -11.20977659	     15.36630376	     -7.27445965	     -7.82924926	    -62.31823440	    125.31865833	    -57.33087880	   -156.69606540	     -0.40571781	     12.37531080	     22.21407172	     -9.26968217	    -32.97670177	     -9.06660909	    -28.01081083	      9.91366215	     58.13038660	     -6.87897104	      2.03086984	     29.76177632	     11.49038807	     27.89886968	     -5.45490240
      4.65000000	     -2.55341092	      1.51127596	     11.01924224	     -0.10615302	      1.02388829	      0.01022253	     12.62897020	    -13.70535298	     30.80592258	    -11.97827384	     15.98194163	     -7.09616878	     -6.92876898	    -61.42750272	    125.27977812	    -54.87592617	   -156.46716599	     -0.90700968	     12.23956941	     22.51257659	     -9.81346395	    -33.41690219	     -8.40660587	    -27.64606912	     10.10089522	     58.28620437	     -6.33376414	      2.08204126	     27.52574568	     11.84011647	     27.81242176	     -5.04843713
      4.66000000	     -2.54684124	      1.49446433	     10.81077976	     -0.10507096	      1.02396850	      0.00994365	     12.59730349	    -13.78078161	     31.34314098	    -12.33012801	     16.90125679	     -7.19729385	     -5.66190927	    -60.60682945	    126.26649156	    -52.17168492	   -155.78392996	     -1.21337088	     10.67284242	     23.05820529	     -9.96165635	    -34.31029854	     -8.14982920	    -27.44018269	     10.61533075	     57.68483949	     -4.93784476	      3.23603692	     25.08284516	     12.44385187	     27.27855199	     -5.03606304
      4.67000000	     -2.56271703	      1.56662419	     10.77763123	     -0.10458116	      1.02399379	      0.00991758	     12.85545772	    -13.69926885	     32.05189716	    -12.38675235	     17.35501798	     -7.51768088	     -4.57902652	    -59.46939578	    126.84154586	    -49.46210225	   -155.71953175	     -1.53776294	      7.13452372	     23.81330711	    -10.30960246	    -35.52908601	     -7.81952377	    -27.46992365	     11.27090479	     57.37586832	     -3.85276461	      3.87968896	     22.96764108	     13.42187522	     26.59936524	     -5.29908738
      4.68000000	     -2.61074351	      1.58395305	     10.73430498	     -0.10395387	      1.02415059	      0.00981752	     13.01966115	    -13.75223448	     32.68961766	    -12.60163872	     17.93469921	     -7.70847866	     -3.54014138	    -58.48999963	    127.47790578	    -46.69445122	   -156.31056082	      1.73390738	      5.14417705	     24.43215603	    -10.55687160	    -36.52405044	     -7.55981676	    -27.44765686	     11.82168426	     57.06819852	     -2.85320994	      4.62392023	     21.01711772	     14.37434430	     26.03518563	     -5.50173207
      4.69000000	     -2.67044584	      1.73573091	     10.61043459	     -0.10311167	      1.02475592	      0.00978524	     13.31765723	    -14.24551302	     33.39965974	    -13.13833324	     18.31740309	     -7.67193034	     -2.90296125	    -58.10596093	    127.34036543	    -44.78665750	   -156.26524710	      1.62745762	      4.88555312	     24.71975356	    -11.04568485	    -36.93857982	     -6.99544695	    -27.16207340	     11.98772375	     57.16036635	     -2.38484573	      3.98387807	     19.33861889	     14.76594269	     26.01033922	     -5.17063395
      4.70000000	     -2.77469316	      1.76186989	     10.07503238	     -0.10211879	      1.02534676	      0.00979451	     13.50120834	    -14.46224964	     34.21792772	    -13.56025201	     19.13177776	     -7.80357982	     -2.06625759	    -57.15705355	    127.31414211	    -42.33659542	   -155.80455570	      1.68226250	      3.85285538	     25.05208457	    -11.17041500	    -37.47096182	     -6.71098825	    -26.81948269	     12.30781058	     57.17674133	     -1.60928652	      4.30567794	     17.95602849	     15.18015077	     25.48770572	     -5.05562128
      4.71000000	     -2.72618242	      1.76415550	     10.26981843	     -0.10176137	      1.02515474	      0.00986700	     13.83310883	    -14.02539194	     35.21263710	    -13.36150594	     19.82195644	     -8.45488713	     -1.76928166	    -56.32642872	    127.61833712	    -39.78201522	   -154.38499482	      2.20686636	      1.03506636	     25.60483569	    -11.17725911	    -38.37832483	     -6.70756802	    -26.89861643	     12.86000039	     56.56283734	     -0.68071627	      4.97633729	     16.47971648	     16.03048412	     24.17527761	     -5.25387551
      4.72000000	     -2.75938227	      1.94937248	     10.03866339	     -0.10116279	      1.02580946	      0.00994808	     14.15704648	    -14.32487801	     35.99506990	    -13.73174753	     20.24793106	     -8.56583151	     -1.31150085	    -55.97707375	    127.42659590	    -38.24235102	   -154.13747429	      2.21069323	      0.39149918	     25.89124116	    -11.47934802	    -38.80941565	     -6.32792173	    -26.66407981	     13.07366712	     56.64412414	     -0.22862680	      4.49771655	     15.33864636	     16.41371127	     24.01552689	     -5.08377406
      4.73000000	     -2.68575677	      2.01423257	     10.13495274	     -0.10080887	      1.02574574	      0.01008178	     14.58280355	    -13.97494465	     37.15466778	    -13.60842802	     20.96392866	     -9.23724659	     -1.43671313	    -55.45761853	    127.02247867	    -36.27454431	   -152.54118130	      2.69656537	     -2.69127194	     26.30093392	    -11.40576826	    -39.49102136	     -6.36187625	    -26.66093664	     13.51599363	     56.08824271	      0.52333206	      4.95351118	     14.40456775	     17.13959007	     22.88277796	     -5.24052542
      4.74000000	     -2.70742398	      2.22221440	     10.04001763	     -0.10027249	      1.02643783	      0.01013752	     14.81187602	    -14.26691137	     37.69786423	    -13.93483296	     21.25781658	     -9.25961421	     -1.18392138	    -55.35524922	    126.97220148	    -35.24267081	   -152.41371287	      2.64026647	     -2.94107811	     26.46103951	    -11.63075576	    -39.72271750	     -6.08480080	    -26.48815910	     13.61744011	     56.09420811	      0.82223400	      4.47870251	     13.60801058	     17.36676612	     22.85859491	     -5.07249801
      4.75000000	     -2.76605982	      2.39778567	      9.86945737	     -0.09985733	      1.02706566	      0.01015210	     15.06401030	    -14.54019489	     38.30952158	    -14.25676383	     21.60116387	     -9.31746885	     -0.92276823	    -55.21337388	    126.90084076	    -34.20107527	   -151.99332856	      2.58511023	     -3.50210539	     26.60537226	    -11.66755598	    -39.95558166	     -5.96799629	    -26.32037922	     13.76443153	     56.05133810	      1.16341448	      4.17075831	     13.06649840	     17.57505228	     22.66468170	     -4.96888074
